<?xml version="1.0" encoding="utf-8"?>
<!-- Generator: Adobe Illustrator 24.2.3, SVG Export Plug-In . SVG Version: 6.00 Build 0)  -->
<svg version="1.1" id="Layer_1" xmlns="http://www.w3.org/2000/svg" xmlns:xlink="http://www.w3.org/1999/xlink" x="0px" y="0px"
	 viewBox="0 0 196 218" style="enable-background:new 0 0 196 218;" xml:space="preserve">
<style type="text/css">
	.st0{fill:#FFFFFF;}
</style>
<path d="M57.94,128.44c-2.96,0-5.93,0.04-8.89-0.01c-12.94-0.18-23.64-7.85-27.52-19.71c-5.08-15.5,3.94-31.9,19.81-35.7
	c3.68-0.88,7.54-1.18,11.34-1.41c3.81-0.23,7.65-0.05,11.95-0.05c-5.98-9.42-8.04-19.32-5.72-29.99
	c2.33-10.72,8.35-18.96,17.4-24.94c14.65-9.68,34.06-8.45,47.66,2.96c7.61,6.38,11.81,14.7,13.19,24.47
	c1.38,9.76-0.58,18.83-6.27,27.5c5.1,0,9.72-0.05,14.35,0.01c6.28,0.09,12.18,1.55,17.48,5.08c10.14,6.75,14.98,18.01,12.57,29.35
	c-2.43,11.47-11.36,20.28-22.95,22.22c-3.75,0.63-7.63,0.44-11.46,0.6c-0.95,0.04-1.91,0.01-3.57,0.01c0.92,1.3,1.37,2.04,1.91,2.69
	c6.18,7.32,12.44,14.57,18.54,21.96c8.18,9.89,9.68,23.37,3.95,34.14c-8.61,16.19-30.98,19.25-44.33,5.85
	c-4.57-4.59-8.49-9.82-12.71-14.76c-0.59-0.7-1.16-1.42-1.77-2.11c-3.31-3.73-7.2-3.7-10.38,0.16c-3.92,4.76-7.75,9.58-11.67,14.34
	c-9.01,10.94-25.02,13.81-36.28,6.96c-14.35-8.72-16.97-26.59-10.5-38.26c3.18-5.75,7.79-10.73,11.93-15.93
	c3.52-4.43,7.29-8.67,10.94-13c0.46-0.55,0.85-1.15,1.28-1.73C58.15,128.91,58.05,128.68,57.94,128.44z M58.52,77.84
	c-2.92,0-5.83,0.02-8.75,0c-7.61-0.06-14.12,2.72-19,8.45c-5.58,6.55-6.76,14.33-3.57,22.25c3.16,7.83,9.08,12.9,17.71,14
	c3.7,0.47,7.47,0.42,11.21,0.45c2.93,0.03,5.52,0.63,6.9,3.5c1.4,2.91,0.49,5.4-1.48,7.79c-7.07,8.63-14.26,17.18-21.03,26.05
	c-6.11,8.01-5.51,20.42,0.83,27.89c9.24,10.89,25.44,10.44,35.1-1c3.87-4.58,7.66-9.24,11.56-13.79c1.12-1.31,2.37-2.63,3.82-3.54
	c5.22-3.3,11.2-2.24,15.44,2.68c4.68,5.42,9.04,11.14,13.94,16.35c8.35,8.91,21.36,9.6,30.41,1.96c8.68-7.32,10.35-21.16,3.52-30.56
	c-2.98-4.11-6.29-7.97-9.49-11.92c-3.94-4.85-7.89-9.69-11.88-14.5c-1.94-2.35-2.44-4.93-1.16-7.67c1.21-2.59,3.54-3.29,6.23-3.24
	c2.67,0.05,5.33,0.07,8,0c7.54-0.22,14.09-2.78,18.7-8.94c5.23-6.99,5.99-14.78,2.47-22.67c-3.68-8.22-10.54-12.64-19.36-13.3
	c-7.38-0.55-14.82-0.11-22.23-0.32c-1.47-0.04-3.72-0.74-4.16-1.75c-0.45-1.06,0.51-3.17,1.47-4.3c9.36-11.02,10.7-26.95,3.19-39.65
	c-7.14-12.08-21.9-18.37-35.95-15.34C65.44,22.22,55.28,52.03,72.08,71.9c0.9,1.07,1.86,3.29,1.37,4.05c-0.7,1.08-2.69,1.7-4.18,1.8
	C65.7,78,62.1,77.83,58.52,77.84z"/>
<path class="st0" d="M58.52,77.83c3.58,0,7.18,0.17,10.74-0.08c1.49-0.1,3.49-0.72,4.18-1.8c0.49-0.76-0.47-2.98-1.37-4.05
	c-16.8-19.88-6.64-49.69,18.87-55.19c14.05-3.03,28.81,3.26,35.95,15.34c7.51,12.7,6.16,28.62-3.19,39.65
	c-0.96,1.13-1.92,3.24-1.47,4.3c0.43,1.02,2.68,1.71,4.16,1.75c7.41,0.22,14.86-0.23,22.23,0.32c8.82,0.66,15.69,5.07,19.36,13.3
	c3.52,7.88,2.76,15.68-2.47,22.67c-4.61,6.16-11.16,8.72-18.7,8.94c-2.66,0.08-5.33,0.05-8,0c-2.69-0.05-5.02,0.65-6.23,3.24
	c-1.28,2.75-0.79,5.32,1.16,7.67c3.98,4.81,7.94,9.65,11.88,14.5c3.2,3.95,6.51,7.81,9.49,11.92c6.83,9.4,5.16,23.24-3.52,30.56
	c-9.05,7.63-22.06,6.94-30.41-1.96c-4.89-5.22-9.26-10.93-13.94-16.35c-4.24-4.92-10.23-5.98-15.44-2.68
	c-1.44,0.91-2.69,2.23-3.82,3.54c-3.9,4.55-7.69,9.21-11.56,13.79c-9.66,11.44-25.85,11.89-35.1,1c-6.34-7.47-6.94-19.88-0.83-27.89
	c6.77-8.87,13.95-17.42,21.03-26.05c1.96-2.4,2.87-4.89,1.48-7.79c-1.38-2.87-3.97-3.47-6.9-3.5c-3.74-0.04-7.52,0.02-11.21-0.45
	c-8.63-1.1-14.55-6.17-17.71-14c-3.19-7.92-2.01-15.69,3.57-22.25c4.87-5.73,11.38-8.5,19-8.45C52.69,77.85,55.6,77.84,58.52,77.83z
	 M110.01,51.92c3.26-0.01,5.84-2.55,5.89-5.8c0.06-3.38-2.57-6.05-5.93-6.04c-3.36,0.01-5.97,2.7-5.89,6.08
	C104.17,49.42,106.75,51.93,110.01,51.92z M91.47,46.04c0.01-3.29-2.35-5.86-5.46-5.95c-3.17-0.09-6.16,2.76-6.17,5.9
	c-0.01,3.21,2.83,5.97,6.1,5.92C89.08,51.87,91.46,49.34,91.47,46.04z M98.13,99.06c3.26-0.01,5.79-2.48,5.75-5.59
	c-0.04-2.97-2.87-5.66-5.9-5.62c-2.85,0.03-5.42,2.61-5.45,5.46C92.51,96.49,95.02,99.07,98.13,99.06z M98.13,123.06
	c3.27-0.02,5.79-2.47,5.75-5.59c-0.04-2.97-2.87-5.66-5.9-5.62c-2.85,0.03-5.42,2.61-5.45,5.46
	C92.52,120.49,95.03,123.08,98.13,123.06z M98.12,147.06c3.26-0.01,5.8-2.46,5.77-5.58c-0.03-2.96-2.84-5.66-5.88-5.64
	c-2.85,0.02-5.43,2.59-5.46,5.44C92.5,144.47,95.01,147.07,98.12,147.06z"/>
<path d="M110.01,51.92c-3.27,0.01-5.85-2.5-5.93-5.77c-0.08-3.37,2.53-6.06,5.89-6.08c3.36-0.01,5.98,2.66,5.93,6.04
	C115.85,49.38,113.28,51.91,110.01,51.92z"/>
<path d="M91.47,46.04c-0.01,3.3-2.38,5.82-5.52,5.87c-3.27,0.05-6.11-2.71-6.1-5.92c0.01-3.14,3-5.99,6.17-5.9
	C89.12,40.18,91.48,42.76,91.47,46.04z"/>
<path d="M98.13,99.06c-3.11,0.01-5.62-2.57-5.59-5.76c0.02-2.84,2.6-5.42,5.45-5.46c3.03-0.03,5.85,2.66,5.9,5.62
	C103.93,96.58,101.4,99.05,98.13,99.06z"/>
<path d="M98.13,123.06c-3.11,0.02-5.62-2.57-5.59-5.76c0.02-2.84,2.6-5.42,5.45-5.46c3.03-0.03,5.86,2.66,5.9,5.62
	C103.93,120.59,101.4,123.04,98.13,123.06z"/>
<path d="M98.12,147.06c-3.11,0.01-5.61-2.59-5.58-5.78c0.03-2.85,2.62-5.42,5.46-5.44c3.04-0.02,5.85,2.68,5.88,5.64
	C103.91,144.6,101.38,147.05,98.12,147.06z"/>
</svg>
